<svg width="76" height="69" viewBox="0 0 76 69" fill="none" xmlns="http://www.w3.org/2000/svg">
<path d="M36.5038 3.11194C36.9335 0.801804 39.6416 -0.588314 41.8047 0.242297C42.791 0.620109 43.5091 1.43341 44.0975 2.27844C49.5455 2.04195 55.1579 3.46091 59.5849 6.71125C61.1539 7.84757 62.5382 9.22039 63.7957 10.6913L63.8072 10.7518C63.862 11.5824 64.2311 12.3352 64.609 13.0591C64.3119 12.9293 64.0177 12.7909 63.7091 12.6928C63.2333 12.7389 62.7689 13.2235 62.2988 12.9149C61.5519 12.5284 60.851 12.0208 59.9973 11.8968C59.7666 12.2746 59.5388 12.6495 59.308 13.0273C59.0369 12.7303 58.7687 12.4332 58.5034 12.1362C58.0102 12.3496 57.592 12.6813 57.2229 13.0677C56.7037 12.7043 56.2048 12.3063 55.6338 12.0295C55.0858 12.015 54.5522 12.1448 54.0187 12.2371C54.2061 11.9285 54.3907 11.617 54.5782 11.3084C55.0137 11.2075 55.4463 11.1094 55.8818 11.0114C52.5622 8.85411 48.8302 7.45246 45.0838 6.2325C44.6368 6.08253 44.1609 6.0681 43.6966 6.0508C43.6707 6.2325 43.6159 6.59877 43.5899 6.78047C44.9079 8.10714 46.1394 9.52321 47.1661 11.0893C47.8526 11.0777 48.539 11.0633 49.2225 11.1412C49.5426 11.6026 49.8743 12.0583 50.2146 12.5053C49.3638 12.266 48.4726 12.0958 47.5901 12.24C46.8489 12.2717 46.4509 12.9783 45.9779 13.4455C46.0385 12.8543 46.5201 12.1218 45.975 11.6372C45.6866 11.4527 45.3838 11.2969 45.0637 11.17C44.0975 10.0106 43.1342 8.85122 42.096 7.75816C41.7528 7.81008 41.4095 7.86199 41.0663 7.91391C41.1413 9.31844 41.2279 10.723 41.2221 12.1304C41.0952 12.563 40.9712 12.9927 40.8472 13.4254C40.6914 12.9408 40.5155 12.4678 40.2992 12.0093C40.1694 12.2919 40.0396 12.5746 39.9127 12.8601C39.93 12.0179 39.8637 11.1642 39.4397 10.4173C39.2552 9.57224 39.3705 8.68107 39.1715 7.83315C37.2478 7.21885 35.999 5.08752 36.5038 3.11194ZM44.3571 4.09829C48.6716 5.54032 53.1131 6.94198 56.8681 9.58955C57.5978 9.57801 58.4198 9.35882 59.0802 9.78278C59.5849 10.0568 59.8935 10.5557 60.2079 11.0143C60.8164 11.1325 61.4221 11.2594 62.0277 11.395C57.7449 6.29306 50.9154 3.84738 44.3571 4.09829Z" fill="#2F80EC"/>
<path d="M17.0163 12.3035C16.102 9.92702 17.8988 6.9622 20.4887 6.91894C22.7325 6.64207 24.9474 8.67245 24.7628 10.9422C24.4139 11.4469 24.0736 11.9603 23.7592 12.491C22.1239 11.6027 20.1368 11.9286 18.4612 12.5371C17.6738 12.7217 17.4489 11.6892 17.0855 11.1989C17.0624 11.5017 17.0422 11.8045 17.0249 12.1103L17.0163 12.3035Z" fill="#3282E9"/>
<path d="M39.4398 10.4172C39.8638 11.1642 39.9301 12.0179 39.9128 12.86C40.0397 12.5745 40.1695 12.2919 40.2993 12.0092C40.5156 12.4678 40.6915 12.9408 40.8473 13.4253C40.9713 12.9927 41.0953 12.563 41.2222 12.1304C41.251 12.5428 41.2943 12.9523 41.3347 13.3647C42.6152 13.3647 43.8957 13.4253 45.1762 13.4513C45.3781 13.0475 45.5771 12.6437 45.7848 12.2457C45.5454 11.8852 45.306 11.5247 45.0638 11.17C45.3839 11.2969 45.6867 11.4526 45.9751 11.6372C46.5202 12.1217 46.0386 12.8543 45.978 13.4455C46.451 12.9783 46.849 12.2717 47.5902 12.24C48.4727 12.0958 49.3639 12.2659 50.2147 12.5053C49.8744 12.0583 49.5427 11.6026 49.2226 11.1411C49.9436 11.3921 50.5118 11.9112 51.0511 12.4332C52.2076 12.0035 53.3699 11.5737 54.5783 11.3084C54.3908 11.617 54.2062 11.9285 54.0188 12.2371C54.5523 12.1448 55.0859 12.015 55.6339 12.0294C56.2049 12.3063 56.7038 12.7043 57.223 13.0677C57.5921 12.6812 58.0103 12.3496 58.5035 12.1361C58.7688 12.4332 59.037 12.7303 59.3081 13.0273C59.5389 12.6495 59.7667 12.2746 59.9974 11.8968C60.8511 12.0208 61.5519 12.5284 62.2989 12.9148C62.769 13.2234 63.2334 12.7389 63.7092 12.6928C64.0178 12.7908 64.312 12.9293 64.609 13.059C64.2312 12.3351 63.8621 11.5824 63.8073 10.7518C65.2176 12.4015 66.452 14.305 67.1182 16.3671C66.9278 16.7968 66.674 17.1919 66.4145 17.5784C66.1751 17.0419 65.9732 16.3757 65.258 16.3613C64.8801 15.6778 64.6177 14.9135 64.0928 14.3309C62.9796 13.5234 61.6269 13.0908 60.2743 12.9033C60.7992 13.7541 61.3674 14.5761 61.8894 15.4297C61.4135 15.8075 60.9405 16.1882 60.4647 16.5632C59.9657 15.7239 59.4264 14.9106 58.8467 14.1233C57.6844 14.2992 56.5308 13.8896 55.8386 12.9235C54.3562 13.1283 52.9257 13.6012 51.5702 14.2184C51.5154 15.2538 51.0107 16.145 50.3272 16.8948L50.4137 17.2121C50.3531 17.1313 50.2378 16.9698 50.1801 16.8891C48.7409 17.4745 47.3451 16.641 45.9348 16.4161C45.6896 16.07 45.4704 15.7066 45.2483 15.349C43.9073 15.2653 42.5633 15.1327 41.2193 15.1615C41.1155 15.1961 40.9078 15.2653 40.8069 15.3028C40.6944 16.1536 40.5935 17.0102 40.3108 17.8264C40.181 17.0217 40.0715 16.2084 39.7657 15.4499C39.6014 15.9662 39.4427 16.4882 39.336 17.0217C39.3562 16.4305 39.385 15.8393 39.4168 15.2509C38.3958 15.2394 37.3777 15.274 36.3626 15.3836C36.0338 16.7622 34.6552 17.8523 33.216 17.5928C31.575 17.4169 30.3839 15.6057 30.8973 14.031C31.2693 12.5255 33.0459 11.6228 34.4908 12.1448C35.2378 12.3669 35.7367 12.9985 36.2039 13.5811C37.2855 13.5032 38.3641 13.3994 39.4514 13.3821C39.4543 12.3928 39.3851 11.4036 39.4398 10.4172Z" fill="#428BD9"/>
<path d="M17.0855 11.1988C17.4489 11.6891 17.6738 12.7216 18.4612 12.537C20.1368 11.9285 22.1239 11.6026 23.7592 12.4909C24.0736 11.9602 24.4139 11.4469 24.7628 10.9421C24.8609 12.9581 23.0901 14.8039 21.0885 14.8645C19.3235 15.0462 17.4575 13.8522 17.0249 12.1102C17.0422 11.8045 17.0624 11.5016 17.0855 11.1988Z" fill="#3E88DD"/>
<path d="M40.8067 15.3029C40.9077 15.2654 41.1153 15.1962 41.2192 15.1616C41.1817 17.0218 41.0058 18.8763 40.7029 20.7106C40.6625 20.4741 40.5818 20.004 40.5414 19.7704C40.2876 20.6212 40.1838 21.619 39.3762 22.1497C39.3157 21.3335 39.2119 20.5202 39.0792 19.7127C39.0705 18.81 39.2349 17.9159 39.3359 17.0218C39.4426 16.4883 39.6012 15.9663 39.7656 15.45C40.0713 16.2085 40.1809 17.0218 40.3107 17.8265C40.5933 17.0103 40.6943 16.1537 40.8067 15.3029Z" fill="#5395CB"/>
<path d="M61.8893 15.4297C62.3883 16.2545 62.8757 17.0909 63.3112 17.9561C63.34 18.5445 63.3487 19.1328 63.3544 19.724C63.0256 19.8279 62.6998 19.9317 62.371 20.0326C61.7567 18.8646 61.1424 17.6966 60.4646 16.5631C60.9405 16.1882 61.4135 15.8075 61.8893 15.4297Z" fill="#4E91CD"/>
<path d="M45.9348 16.416C47.3451 16.641 48.7409 17.4745 50.1801 16.889C50.2378 16.9698 50.3531 17.1313 50.4137 17.212C50.5896 17.6504 50.7569 18.0888 50.9242 18.53C51.7548 18.6223 52.522 18.9598 53.1478 19.5164C56.1934 18.9194 59.4725 18.7175 62.371 20.0326C62.6998 19.9317 63.0257 19.8279 63.3545 19.724C63.3487 19.1328 63.3401 18.5445 63.3112 17.9561C63.963 19.1847 64.5687 20.4364 65.108 21.7169C64.7446 22.5014 64.86 23.3262 65.2032 24.0847C64.7013 23.8309 64.1909 23.5973 63.6689 23.3926C61.3443 20.4883 57.1393 20.5143 53.8227 21.2699C53.6727 22.1207 53.3785 23.0061 52.5969 23.4791C51.9826 23.332 51.4693 23.6118 51.0395 24.0213C50.4166 23.4502 49.6869 22.7033 48.7554 22.9398C47.4431 23.3089 46.3558 24.2607 44.9744 24.4279C45.6983 23.4041 47.3249 23.3435 47.5498 21.9275C47.7834 21.7919 48.017 21.6564 48.2507 21.5208C48.3083 20.6642 48.6515 19.8769 49.2197 19.2337C49.0322 18.6425 48.8188 18.0628 48.5737 17.4918C47.5844 17.4947 46.6039 17.1716 45.9348 16.416Z" fill="#5A98C1"/>
<path d="M65.2578 16.3614C65.9731 16.3758 66.175 17.042 66.4143 17.5784C66.6739 17.192 66.9277 16.7968 67.1181 16.3671L67.193 16.2085C67.5882 17.4688 68.0958 18.7032 68.3063 20.0126C68.0756 20.7163 67.767 21.3912 67.4699 22.066C67.2277 21.5267 66.945 21.0076 66.622 20.5115C66.2557 19.0983 65.8519 17.6938 65.2578 16.3614Z" fill="#5397C7"/>
<path d="M7.33144 18.2387C9.48584 17.4773 11.6633 20.0557 10.5414 22.0399C9.75406 23.8886 6.88441 24.0588 5.84615 22.3658C4.81365 20.9296 5.61542 18.6742 7.33144 18.2387Z" fill="#5A98C2"/>
<path d="M38.165 24.2695C38.4765 22.7524 38.788 21.2325 39.0793 19.7126C39.212 20.5202 39.3158 21.3335 39.3764 22.1497C40.1839 21.619 40.2877 20.6211 40.5415 19.7703C40.5819 20.0039 40.6627 20.474 40.703 20.7105C40.4896 22.2102 40.1579 23.6927 39.7455 25.152C39.1543 25.1866 38.8457 25.7173 38.4938 26.1124C38.3785 25.4981 38.2544 24.8867 38.165 24.2695Z" fill="#659FB7"/>
<path d="M67.47 22.0659C67.767 21.391 68.0756 20.7162 68.3064 20.0125C68.6438 21.6102 68.8313 23.2541 68.739 24.8894C68.514 25.397 68.2718 25.8959 68.0266 26.392C67.6517 26.1324 67.2825 25.8671 66.9191 25.596C67.0806 23.8944 66.8672 22.1928 66.6221 20.5114C66.9451 21.0075 67.2277 21.5266 67.47 22.0659Z" fill="#649FB8"/>
<path d="M65.1078 21.717C65.8433 23.3898 66.5499 25.1001 66.7835 26.9286C66.8296 26.4844 66.8758 26.0403 66.919 25.5961C67.2824 25.8672 67.6516 26.1325 68.0265 26.3921C68.2717 25.8961 68.5139 25.3971 68.7389 24.8895C68.7447 26.1124 68.5774 27.3294 68.3351 28.5292C68.3842 28.7196 68.4851 29.0974 68.5341 29.2877C68.4447 29.6771 68.3524 30.0664 68.2544 30.4558C67.8448 30.4067 67.4353 30.3577 67.0315 30.3C66.9796 30.2914 66.8729 30.2712 66.8181 30.2597C66.2355 30.1472 65.6529 30.0405 65.0675 29.9424C65.2463 27.6928 64.9608 25.3019 63.6687 23.3927C64.1907 23.5975 64.7012 23.8311 65.203 24.0849C64.8598 23.3263 64.7445 22.5015 65.1078 21.717Z" fill="#76A8A6"/>
<path d="M41.6921 26.0113C43.5091 24.4684 45.4616 23.0811 47.5497 21.9275C47.3247 23.3436 45.6981 23.4041 44.9742 24.428C46.3557 24.2607 47.443 23.309 48.7552 22.9398C49.6868 22.7033 50.4164 23.4503 51.0394 24.0213C51.4691 23.6118 51.9825 23.332 52.5968 23.4791C51.4576 24.0098 52.0402 25.3682 51.8931 26.3488C51.6566 26.9227 51.3451 27.462 51.0278 27.9927C50.6443 27.2832 50.353 26.5276 50.1424 25.7518C50.1223 25.1461 50.1078 24.5405 50.0963 23.9348C49.7271 23.681 49.358 23.4272 48.9917 23.1763C47.342 24.0646 45.8019 25.1375 44.2791 26.2276C43.1198 26.4468 42.243 27.4332 41.0288 27.4101C41.2538 26.9458 41.4816 26.4814 41.6921 26.0113Z" fill="#6BA2AF"/>
<path d="M27.5948 23.4676C29.3022 22.1265 32.0392 22.5678 33.2447 24.3704C34.0782 25.5067 34.159 27.041 33.6571 28.3302C31.6902 28.5955 29.5935 28.01 27.7419 28.8781C27.1824 28.4455 26.6316 28.0014 26.0778 27.563L26.0115 27.5082C25.8125 26.0027 26.3172 24.3675 27.5948 23.4676Z" fill="#6EA4AD"/>
<path d="M38.1651 24.2695C38.2545 24.8867 38.3785 25.4981 38.4939 26.1124C38.8457 25.7173 39.1543 25.1867 39.7456 25.1521C39.4427 26.3807 38.938 27.5487 38.5919 28.7629C38.8111 29.1378 39.0476 29.5041 39.2841 29.8675C38.7765 29.6771 38.2718 29.4868 37.7613 29.3138C37.2883 29.4378 36.8009 29.4782 36.3164 29.4464C37.0605 27.765 37.6258 26.0202 38.1651 24.2695Z" fill="#74A9A7"/>
<path d="M50.1424 25.752C50.3529 26.5278 50.6442 27.2834 51.0278 27.9929C51.3451 27.4622 51.6565 26.9229 51.893 26.349C51.8498 27.8256 51.6421 29.2936 51.3364 30.7385C50.5289 30.5395 50.4164 31.6181 49.9924 32.0709C49.7732 31.8373 49.5598 31.6066 49.3435 31.3759C49.7848 29.5301 50.0847 27.6497 50.1424 25.752Z" fill="#7CAAA0"/>
<path d="M38.5917 28.7626C39.5954 27.8109 40.6135 26.8765 41.6921 26.0112C41.4816 26.4813 41.2537 26.9457 41.0288 27.41C42.243 27.4331 43.1197 26.4467 44.2791 26.2275C41.3431 28.529 38.6754 31.1506 36.1662 33.9107C35.6788 33.4435 35.1684 33.0051 34.6377 32.5898C35.2491 31.5688 35.7942 30.5133 36.3162 29.4462C36.8007 29.4779 37.2881 29.4375 37.7611 29.3135C38.2716 29.4865 38.7763 29.6769 39.2839 29.8672C39.0474 29.5038 38.8109 29.1376 38.5917 28.7626Z" fill="#7FAE99"/>
<path d="M26.0779 27.563C26.6316 28.0014 27.1825 28.4455 27.742 28.8781C29.5936 28.01 31.6903 28.5955 33.6572 28.3301C32.8266 30.075 30.7212 31.1507 28.8437 30.522C27.4738 30.1384 26.3663 28.956 26.0779 27.563Z" fill="#7DAB9F"/>
<path d="M68.5341 29.2878C69.2638 30.9779 70.054 32.6449 71.0404 34.2052C70.726 34.3004 70.4116 34.3984 70.1002 34.4936C69.8694 34.1965 69.6387 33.8995 69.4109 33.6024C69.3907 34.0437 69.3705 34.4849 69.3705 34.9262C68.4447 33.464 67.6862 31.9037 67.0315 30.3001C67.4353 30.3578 67.8448 30.4069 68.2544 30.4559C68.3524 30.0665 68.4447 29.6772 68.5341 29.2878Z" fill="#87B196"/>
<path d="M13.5352 32.8091C13.6592 31.0585 15.2396 29.4895 17.0451 29.6943C18.7265 29.7664 20.0243 31.3209 20.0503 32.9591C18.6659 32.985 17.2816 33.1408 15.8972 33.0629C15.1041 33.011 14.2591 33.2417 13.5352 32.8091Z" fill="#84B197"/>
<path d="M65.0674 29.9424C65.6529 30.0404 66.2355 30.1471 66.8181 30.2596C66.72 31.4219 66.5643 32.5813 66.2413 33.7032C65.5606 33.5301 64.88 33.6513 64.2368 33.8935C64.7733 32.6447 64.9232 31.2777 65.0674 29.9424Z" fill="#84B099"/>
<path d="M49.9926 32.0708C50.4165 31.618 50.529 30.5393 51.3366 30.7383C51.1462 31.7881 50.7742 32.7976 50.5954 33.8474C50.7223 34.3031 51.2241 34.3348 51.6106 34.4242C54.0793 34.8395 56.5337 35.6441 58.5756 37.1237C58.0334 37.1525 57.494 37.2131 56.9576 37.2794C57.0268 37.6255 57.0903 37.9745 57.1739 38.3206C55.2935 37.1439 53.1362 36.518 50.9703 36.1229C50.506 36.7286 49.9118 37.2131 49.2399 37.5765C49.0466 38.0264 48.8563 38.4792 48.663 38.932C48.5188 38.7935 48.2275 38.5196 48.0833 38.3811C47.6738 38.4215 47.2643 38.459 46.8605 38.4994C47.0451 38.0754 47.2268 37.6515 47.4085 37.2275C47.0451 36.7689 46.7076 36.2931 46.3933 35.8028C43.0622 35.7768 39.7397 36.1748 36.4721 36.8064C36.4894 37.2535 36.4923 37.7034 36.4807 38.1533C36.2241 37.6861 36.0453 37.1814 35.9241 36.668C35.18 37.7784 33.7668 37.4467 32.6248 37.4755C31.4596 37.4755 30.2829 37.3804 29.1927 36.942C28.9995 37.5851 28.8178 38.234 28.6736 38.8916C28.1054 37.0631 29.0226 34.9404 30.7617 34.1358C31.6874 33.6455 32.7834 33.6628 33.7813 33.8964C34.0668 33.4609 34.3523 33.0254 34.6378 32.5899C35.1685 33.0052 35.679 33.4436 36.1664 33.9108C35.8261 34.2684 35.555 34.6838 35.3156 35.1135C39.0851 34.4617 42.8834 33.9108 46.7163 33.9512C47.2873 33.2792 48.0776 32.8754 48.963 32.8235C49.0956 32.3419 49.2254 31.8602 49.3437 31.3757C49.56 31.6064 49.7734 31.8372 49.9926 32.0708Z" fill="#91B788"/>
<path d="M13.5352 32.8093C14.2591 33.2419 15.1041 33.0112 15.8972 33.0631C17.2816 33.141 18.6659 32.9853 20.0503 32.9593C19.9638 34.6551 18.4871 36.201 16.7422 36.1001C14.9714 36.1347 13.564 34.5225 13.5352 32.8093Z" fill="#8DB68D"/>
<path d="M64.237 33.8934C64.8801 33.6511 65.5608 33.53 66.2414 33.703C65.7771 35.0297 65.0474 36.2381 64.3004 37.4177C63.813 36.5611 62.893 37.112 62.1951 37.3052C62.9392 36.2064 63.6631 35.0903 64.237 33.8934Z" fill="#92B789"/>
<path d="M69.3706 34.9261C69.3706 34.4848 69.3908 34.0436 69.411 33.6023C69.6388 33.8994 69.8696 34.1964 70.1003 34.4935C70.4118 34.3983 70.7261 34.3002 71.0405 34.2051C71.551 34.9809 72.1105 35.7221 72.6873 36.4489C72.2633 36.8728 71.8423 37.2997 71.4212 37.7265C70.6684 36.8469 69.9734 35.9153 69.3706 34.9261Z" fill="#92B984"/>
<path d="M2.05942 36.3335C3.58798 35.4943 5.61547 36.8931 5.3934 38.6091C5.30399 40.3165 3.08903 41.3807 1.73352 40.2905C0.320334 39.3705 0.527988 37.02 2.05942 36.3335Z" fill="#9DBD7E"/>
<path d="M32.6248 37.4755C33.7668 37.4467 35.18 37.7783 35.9241 36.668C36.0453 37.1813 36.2241 37.686 36.4807 38.1533C36.4288 38.4849 36.3712 38.8137 36.3048 39.1454C37.9516 40.8326 39.6359 42.4794 41.3029 44.1463C40.9597 44.6511 40.6194 45.1558 40.2733 45.6605C38.5861 44.0166 36.9191 42.3496 35.2723 40.6682C33.2333 42.6784 29.4119 41.6661 28.6736 38.8916C28.8178 38.234 28.9995 37.5851 29.1927 36.9419C30.2829 37.3803 31.4596 37.4755 32.6248 37.4755Z" fill="#A1C178"/>
<path d="M71.4211 37.7264C71.8422 37.2995 72.2633 36.8727 72.6873 36.4487C73.8438 37.7812 75.6896 38.9002 75.5973 40.9017C74.8965 40.6623 74.1322 40.596 73.5352 41.1094C73.6044 40.9738 73.7486 40.6998 73.8207 40.5643C73.3448 39.376 72.2056 38.6868 71.4211 37.7264Z" fill="#9FBF7C"/>
<path d="M62.195 37.3054C62.8929 37.1121 63.8129 36.5613 64.3003 37.4179C63.9514 37.937 63.5909 38.4475 63.2332 38.9637C63.4322 39.7078 63.5764 40.4894 63.363 41.2479C63.2621 40.896 63.1583 40.5471 63.0602 40.1981C61.2548 40.3106 59.3225 40.6797 57.6353 39.8347C57.4968 40.3913 57.3642 40.948 57.2344 41.5075C56.92 40.5298 57.0671 39.5001 57.5084 38.5888C57.4247 38.5224 57.2575 38.3898 57.1738 38.3206C57.0902 37.9745 57.0267 37.6255 56.9575 37.2794C57.494 37.2131 58.0333 37.1525 58.5755 37.1237C58.6649 37.1698 58.8466 37.2592 58.9389 37.3054C59.9425 37.1266 60.9923 37.0545 61.921 37.5621C61.9902 37.4986 62.1286 37.3688 62.195 37.3054Z" fill="#9DBF7C"/>
<path d="M46.8605 38.4996C47.2643 38.4592 47.6738 38.4217 48.0834 38.3813C48.2276 38.5198 48.5189 38.7938 48.6631 38.9322C47.6825 41.1183 46.6096 43.2698 45.355 45.3118C45.2858 44.8993 45.2252 44.4869 45.1704 44.0774C44.6052 44.3715 44.0976 44.7522 43.564 45.0954C43.0939 45.0291 42.6498 44.8532 42.1941 44.7349C42.7017 44.6369 43.2122 44.5532 43.7227 44.4783C44.8705 42.5402 45.9376 40.553 46.8605 38.4996Z" fill="#A7C572"/>
<path d="M57.6354 39.8347C59.3225 40.6797 61.2549 40.3106 63.0603 40.1981C63.1583 40.5471 63.2622 40.8961 63.3631 41.2479C63.2305 41.5709 63.0891 41.8882 62.9478 42.2083C63.9918 43.7224 65.0416 45.2308 66.0655 46.7565C65.6473 46.4248 65.2233 46.1018 64.8023 45.7759C64.4677 46.0643 64.1332 46.3498 63.7986 46.6411C63.0343 45.5567 62.3047 44.4492 61.5519 43.3562C60.8828 43.4859 60.208 43.5552 59.5273 43.5379C59.1639 43.907 58.8063 44.282 58.4487 44.654C58.1314 44.3685 57.9267 43.8407 57.4335 43.8465C56.4644 44.4319 55.8415 45.525 54.6792 45.7961C55.7636 44.7348 56.8595 43.6878 57.9036 42.589C57.6757 42.2285 57.445 41.8738 57.2345 41.5075C57.3643 40.948 57.4969 40.3913 57.6354 39.8347Z" fill="#AAC670"/>
<path d="M73.5351 41.1093C74.1321 40.596 74.8964 40.6623 75.5972 40.9017C75.1127 42.6956 73.29 43.5233 71.6836 44.0713C71.8076 44.4808 71.9316 44.8932 72.0527 45.3085C71.4442 45.1615 70.9078 44.8442 70.4377 44.4376C70.3886 44.6539 70.2906 45.0894 70.2444 45.3057C69.8955 44.4202 69.4571 43.5752 68.9668 42.7619C70.5703 42.5052 72.2431 42.162 73.5351 41.1093Z" fill="#ADC76D"/>
<path d="M13.1688 49.104C11.9979 46.7766 13.5956 43.6733 16.2028 43.3705C18.9542 42.837 21.5384 45.7585 20.6616 48.4263C20.4857 47.786 20.4511 47.0679 20.0646 46.5141C19.6493 46.1219 19.1128 46.393 18.6629 46.5228C16.97 47.039 15.1934 46.4911 13.4889 46.5487C13.2582 47.3794 13.2582 48.2503 13.1688 49.104Z" fill="#B5CD62"/>
<path d="M54.6792 45.7961C55.8415 45.525 56.4644 44.4319 57.4335 43.8465C57.9267 43.8407 58.1314 44.3685 58.4487 44.654C56.8365 46.3181 55.1233 47.8871 53.3237 49.3464C53.0958 48.5619 52.4844 48.8936 51.9595 49.0955C51.8269 48.8676 51.6913 48.6398 51.5615 48.412C52.6344 47.5785 53.6381 46.6642 54.6792 45.7961Z" fill="#BDD05F"/>
<path d="M43.5639 45.0952C44.0975 44.752 44.605 44.3713 45.1703 44.0771C45.2251 44.4867 45.2857 44.8991 45.3549 45.3115C45.9692 46.2863 46.2518 47.4342 45.8711 48.5561C45.7327 49.1675 45.4357 49.7241 44.9223 50.102C44.8271 50.0558 44.6397 49.9606 44.5445 49.9116C43.8235 50.0875 43.0823 50.1481 42.344 50.0731C42.2719 50.1567 42.1305 50.3211 42.0584 50.4019C41.8796 50.2663 41.7008 50.1337 41.5249 49.9981C41.3403 50.0673 41.1557 50.1366 40.9711 50.2058C40.7548 50.0472 40.5385 49.8885 40.3251 49.7299C40.5039 49.4444 40.6827 49.1589 40.8673 48.8762C40.3741 48.0168 40.3453 46.9987 40.6827 46.0787C40.5789 45.9749 40.377 45.7643 40.2732 45.6605C40.6193 45.1558 40.9596 44.6511 41.3028 44.1464C41.5133 44.354 41.7239 44.5646 41.9344 44.7751L42.194 44.7347C42.6497 44.853 43.0938 45.0289 43.5639 45.0952Z" fill="#BED15D"/>
<path d="M70.4375 44.4377C70.9076 44.8444 71.4441 45.1617 72.0526 45.3087C72.1276 46.0067 72.0872 46.7162 71.8767 47.391C72.4765 48.288 72.4823 49.4387 71.7353 50.2607C71.6863 49.6839 71.7757 48.9686 71.1009 48.735C70.7057 49.3666 70.1895 49.9059 69.5089 50.2261C69.8752 49.7242 70.227 49.2109 70.5846 48.7033C70.1607 48.1726 69.7136 47.6593 69.2522 47.1661C69.5839 46.9382 69.9271 46.7306 70.2385 46.471C70.3654 46.099 70.2414 45.6894 70.2443 45.3059C70.2904 45.0895 70.3885 44.654 70.4375 44.4377Z" fill="#BED15D"/>
<path d="M30.7327 48.2157C30.7096 46.5603 32.0652 45.0173 33.7379 44.9423C35.1194 44.8096 36.498 45.6979 36.9796 46.9929C36.9565 47.114 36.9104 47.3534 36.8873 47.4716C36.5845 47.1457 36.2874 46.8141 35.9904 46.4853C35.8346 46.6929 35.676 46.9035 35.5203 47.114C34.6118 47.0275 33.7004 47.0073 32.7891 47.0131C32.5064 46.7823 32.2988 46.318 31.8661 46.4391C31.4364 46.9986 31.1076 47.6245 30.7327 48.2157Z" fill="#B7CE61"/>
<path d="M63.7986 46.6411C64.1331 46.3498 64.4677 46.0643 64.8022 45.7759C65.2233 46.1018 65.6473 46.4248 66.0655 46.7565C66.6856 47.5986 67.2768 48.4581 67.8825 49.306C67.4412 49.3406 66.9999 49.3723 66.5587 49.4098C66.5356 49.7588 66.5125 50.1106 66.4894 50.4625C65.5752 49.1993 64.6984 47.913 63.7986 46.6411Z" fill="#BFD25A"/>
<path d="M18.6631 46.5229C19.113 46.3932 19.6494 46.122 20.0647 46.5143C20.4512 47.068 20.4858 47.7862 20.6617 48.4264C20.1888 50.1136 18.5218 51.4028 16.751 51.3336C15.2426 51.3595 13.8784 50.3991 13.1689 49.1042C13.2584 48.2505 13.2584 47.3795 13.4891 46.5489C15.1936 46.4912 16.9701 47.0392 18.6631 46.5229Z" fill="#C3D357"/>
<path d="M31.8663 46.4393C32.299 46.3181 32.5066 46.7825 32.7892 47.0132C33.7006 47.0074 34.612 47.0276 35.5204 47.1141C35.6762 46.9036 35.8348 46.6931 35.9906 46.4854C36.2876 46.8142 36.5847 47.1459 36.8875 47.4718C36.9106 47.3535 36.9567 47.1141 36.9798 46.993C37.7614 48.8705 36.3626 51.1835 34.3351 51.3393C32.5008 51.6046 30.8021 50.027 30.7329 48.2158C31.1078 47.6246 31.4366 46.9988 31.8663 46.4393Z" fill="#C3D456"/>
<path d="M49.4301 49.9983C50.1569 49.4936 50.8664 48.9601 51.5615 48.4121C51.6913 48.6399 51.8268 48.8678 51.9595 49.0956C52.4844 48.8938 53.0958 48.5621 53.3236 49.3466C52.4238 50.0647 51.5124 50.7655 50.5694 51.426C50.5722 51.9134 50.5722 52.4036 50.578 52.8939C50.4944 52.8247 50.3329 52.6805 50.2492 52.6113C50.1714 52.3287 50.0964 52.046 50.0272 51.7634C48.6745 51.7547 47.146 51.276 46.0125 52.2623C46.0558 51.9393 46.0991 51.6192 46.1452 51.3019C45.7357 50.9011 45.3377 50.4944 44.9224 50.1022C45.4357 49.7244 45.7328 49.1677 45.8712 48.5563C46.3586 49.0149 46.8518 49.4706 47.3536 49.9147C48.0458 49.7763 48.7524 49.7734 49.4301 49.9983Z" fill="#C9D84D"/>
<path d="M71.1011 48.7351C71.776 48.9687 71.6866 49.684 71.7356 50.2608C71.2886 50.8318 70.8444 51.4057 70.3772 51.9566C70.6079 52.7497 70.8589 53.5399 70.9425 54.3648C70.5445 53.7188 70.2734 52.9689 69.6677 52.4844C69.2928 52.891 69.0304 53.3784 69.0621 53.9524C68.2142 52.7814 67.323 51.6422 66.4895 50.4627C66.5126 50.1108 66.5356 49.7589 66.5587 49.41C67 49.3725 67.4412 49.3408 67.8825 49.3061C68.243 49.808 68.6093 50.3098 68.9756 50.8087C69.1515 50.6126 69.3274 50.4165 69.5091 50.2262C70.1898 49.906 70.706 49.3667 71.1011 48.7351Z" fill="#CCD94F"/>
<path d="M40.2675 49.6865L40.3252 49.7298C40.5387 49.8884 40.755 50.047 40.9713 50.2057C41.1558 50.1364 41.3404 50.0672 41.525 49.998C41.7009 50.1335 41.8797 50.2662 42.0585 50.4018C40.9222 51.9534 39.7859 53.505 38.5515 54.9817C38.1939 54.7135 37.8305 54.4568 37.4556 54.2145C36.9105 54.6269 36.4058 55.4979 35.6184 55.1634C34.6811 54.8548 33.689 54.8894 32.72 55.0134C33.7611 54.3529 35.082 54.4424 36.1433 55.0047C37.594 53.2945 39.0188 51.5496 40.2675 49.6865Z" fill="#CFDD49"/>
<path d="M46.0126 52.2623C47.146 51.2759 48.6745 51.7547 50.0272 51.7633C50.0964 52.046 50.1714 52.3286 50.2493 52.6113C50.3329 52.6805 50.4944 52.8247 50.578 52.8939C51.4952 53.612 52.3748 54.3763 53.3035 55.0858C56.6461 57.6786 60.8655 59.2186 65.1224 59.0168C65.2954 59.0658 65.6386 59.1581 65.8116 59.2042C64.1043 59.6138 62.3796 59.0975 60.6578 59.184C59.6311 59.2907 58.9043 58.3938 57.9641 58.1602C57.494 58.114 57.1941 58.5121 56.9143 58.8178C57.2344 59.1091 57.5661 59.3888 57.8949 59.6743C57.5142 59.758 57.1364 59.8474 56.7586 59.9397C56.946 59.8445 57.3152 59.6513 57.5027 59.5561C54.4283 58.365 51.8038 56.3317 49.3494 54.1773C48.4813 54.434 47.6046 54.2811 46.8057 53.8889C45.7674 54.5147 44.7147 55.1089 43.6303 55.6511C43.3967 55.4549 43.166 55.2588 42.9324 55.0656C42.0066 55.0887 41.0981 55.2819 40.2416 55.628C40.331 55.7578 40.5127 56.0202 40.6021 56.15C40.0224 56.0692 39.4456 55.9683 38.8745 55.8443C41.3346 54.8204 43.7284 53.638 46.0126 52.2623Z" fill="#D8E040"/>
<path d="M69.0619 53.9521C69.0301 53.3782 69.2926 52.8908 69.6675 52.4841C70.2732 52.9687 70.5443 53.7185 70.9423 54.3645C71.4412 55.795 71.0288 57.3899 70.0684 58.5349C69.8637 58.4541 69.4541 58.2897 69.2493 58.209C68.8484 58.4945 68.4533 58.7858 68.0524 59.0713C67.8592 58.8262 67.666 58.581 67.4785 58.3359C68.2889 57.8254 69.0474 57.1246 69.3214 56.1757C69.4051 55.423 69.2032 54.6818 69.0619 53.9521Z" fill="#DDE43A"/>
<path d="M35.6183 55.1635C36.4057 55.498 36.9104 54.627 37.4555 54.2146C37.8304 54.4569 38.1938 54.7135 38.5514 54.9818C38.1592 55.4576 37.7641 55.9306 37.3776 56.4123C37.8766 56.2248 38.3784 56.0431 38.8745 55.8441C39.4455 55.9681 40.0223 56.0691 40.602 56.1498C40.5126 56.02 40.3309 55.7576 40.2415 55.6278C41.0981 55.2817 42.0065 55.0885 42.9323 55.0654C43.1659 55.2586 43.3967 55.4547 43.6303 55.6509C41.6662 56.6401 39.6445 57.5053 37.5795 58.2638C37.5276 58.4542 37.418 58.8349 37.3632 59.0252C37.6631 59.204 37.9602 59.38 38.263 59.5588C37.8737 59.5559 37.4901 59.5299 37.1065 59.4838C36.87 59.2127 36.6941 58.8954 36.5095 58.5897C35.9616 58.6099 35.379 58.5321 34.8627 58.7599C34.1792 59.1781 33.7351 59.8703 33.2534 60.4932C34.1994 60.8278 35.1713 60.4846 36.1317 60.4413C34.6435 61.5171 32.3449 60.8941 31.5461 59.2588C30.7501 57.8168 31.298 55.8441 32.7199 55.0135C33.6889 54.8895 34.681 54.8549 35.6183 55.1635Z" fill="#E2E537"/>
<path d="M56.9143 58.8177C57.194 58.512 57.494 58.114 57.9641 58.1602C58.9043 58.3938 59.6311 59.2907 60.6578 59.184C62.3796 59.0975 64.1042 59.6137 65.8116 59.2042C65.6386 59.1581 65.2954 59.0658 65.1223 59.0167C65.9356 58.9158 66.7432 58.711 67.4786 58.3361C67.6661 58.5812 67.8593 58.8264 68.0525 59.0715C68.4534 58.786 68.8485 58.4947 69.2494 58.2092C69.4542 58.2899 69.8637 58.4543 70.0685 58.5351C68.2112 60.6232 65.229 61.0875 62.5843 60.7385C59.8099 60.2973 57.0816 61.4855 54.9416 63.1727C53.0237 64.6435 51.4346 66.4865 50.0589 68.4621C45.4357 65.7539 40.8039 63.0487 36.1317 60.4415C35.1713 60.4847 34.1994 60.8279 33.2534 60.4934C33.7351 59.8704 34.1792 59.1782 34.8627 58.7601C35.379 58.5322 35.9616 58.6101 36.5095 58.5899C36.6941 58.8956 36.87 59.2129 37.1065 59.484C37.4901 59.5301 37.8737 59.5561 38.263 59.5589C42.0412 61.7047 45.7962 63.8966 49.5715 66.051C51.5095 63.5534 53.8658 61.2836 56.7585 59.9396C57.1363 59.8473 57.5142 59.7579 57.8949 59.6743C57.5661 59.3888 57.2344 59.109 56.9143 58.8177Z" fill="#F4EF28"/>
</svg>
