<?xml version="1.0" standalone="no"?>
<!DOCTYPE svg PUBLIC "-//W3C//DTD SVG 20010904//EN"
 "http://www.w3.org/TR/2001/REC-SVG-20010904/DTD/svg10.dtd">
<svg version="1.0" xmlns="http://www.w3.org/2000/svg"
 width="608.000000pt" height="608.000000pt" viewBox="0 0 608.000000 608.000000"
 preserveAspectRatio="xMidYMid meet">
<metadata>
Created by potrace 1.14, written by Peter Selinger 2001-2017
</metadata>
<g transform="translate(0.000000,608.000000) scale(0.100000,-0.100000)"
fill="#000000" stroke="none">
<path d="M3145 5787 c-110 -37 -183 -106 -214 -205 -51 -160 14 -313 167 -394
35 -19 42 -28 43 -53 0 -16 3 -50 5 -75 2 -25 6 -109 7 -187 l3 -143 -30 -1
c-54 -2 -153 -8 -189 -12 -31 -4 -41 2 -78 40 -52 54 -84 71 -144 80 -133 18
-249 -85 -249 -222 1 -70 19 -111 73 -164 108 -106 281 -69 353 74 11 22 22
41 23 43 8 9 229 12 234 3 6 -10 2 -74 -14 -226 -3 -33 -8 -80 -10 -105 -2
-25 -6 -58 -10 -75 -3 -16 -17 -86 -31 -155 -14 -69 -37 -163 -51 -210 -15
-47 -28 -92 -29 -100 -2 -8 -9 -30 -17 -50 -8 -19 -29 -72 -47 -118 -35 -92
-126 -273 -171 -340 -16 -24 -29 -47 -29 -53 0 -5 -4 -9 -9 -9 -5 0 -12 -8
-15 -17 -5 -16 -19 -18 -103 -18 -114 0 -163 -17 -229 -81 -50 -49 -68 -78
-87 -140 -34 -114 -4 -237 77 -317 63 -62 134 -90 231 -90 80 -1 125 13 195
58 l25 16 212 -212 213 -212 -6 -51 c-4 -28 -7 -53 -7 -56 -3 -15 15 -96 24
-107 8 -9 5 -21 -12 -45 -13 -18 -26 -35 -29 -38 -3 -3 -29 -39 -59 -80 -29
-41 -101 -134 -159 -206 l-106 -132 -50 17 c-67 23 -152 19 -206 -9 -202 -103
-190 -386 18 -470 48 -19 139 -18 193 3 l47 18 53 -31 c30 -17 61 -35 69 -40
8 -6 22 -13 30 -17 13 -6 154 -85 260 -146 19 -11 46 -27 60 -34 14 -8 39 -22
55 -32 17 -10 116 -68 220 -128 105 -61 204 -119 222 -129 94 -56 126 -74 133
-74 5 0 37 37 71 83 203 266 430 442 655 506 82 24 109 27 197 24 319 -12 381
-6 502 46 193 84 298 260 259 431 -3 14 -7 36 -9 50 -3 14 -13 58 -24 99 l-20
75 52 65 c28 36 54 68 58 71 3 3 14 20 23 38 23 44 24 119 2 160 -9 18 -14 37
-10 43 9 15 13 151 6 164 -4 6 -7 15 -8 20 -2 6 -5 24 -9 40 -6 29 -5 31 72
63 145 60 229 153 227 249 -2 72 -40 135 -143 240 -48 48 -103 108 -122 133
-45 57 -160 233 -157 240 2 3 -6 19 -18 35 -34 50 -121 242 -129 287 -3 18 0
73 8 123 15 90 17 370 4 465 -19 130 -95 405 -117 420 -4 3 -11 16 -15 30 -13
42 -67 153 -97 197 -15 23 -28 46 -28 51 0 6 -4 12 -8 14 -4 2 -23 26 -42 53
-19 28 -43 56 -52 63 -10 7 -18 18 -18 24 0 17 -170 193 -247 254 -26 22 -50
42 -53 45 -3 4 -50 37 -105 74 -82 55 -222 129 -330 176 -59 25 -249 81 -318
93 -15 3 -35 7 -45 10 -9 2 -37 7 -62 10 -25 3 -56 9 -70 12 -14 3 -97 7 -185
10 l-160 4 -60 63 c-33 35 -82 73 -109 86 -58 29 -163 37 -221 18z m635 -321
c72 -6 90 -8 170 -22 19 -3 49 -8 65 -11 60 -9 211 -55 309 -94 219 -87 410
-212 561 -368 69 -71 75 -82 43 -75 -13 2 -42 9 -66 13 -28 6 -49 17 -60 32
-9 13 -31 38 -50 56 -36 33 -92 47 -162 39 -28 -4 -48 4 -95 34 -154 99 -333
185 -550 265 -55 20 -109 40 -120 45 -11 4 -73 25 -137 46 -65 22 -118 41
-118 44 0 6 100 4 210 -4z m-135 -178 c39 -12 72 -22 75 -23 7 -2 42 -16 65
-25 11 -4 43 -16 70 -25 28 -10 64 -23 80 -30 17 -7 55 -23 85 -35 88 -35 275
-124 278 -132 2 -5 7 -8 12 -8 17 0 150 -82 145 -90 -3 -5 -24 -12 -48 -16
-48 -9 -56 -11 -59 -14 -2 -1 -12 -3 -23 -5 -11 -2 -70 -20 -131 -40 l-112
-37 -32 29 c-64 58 -105 73 -196 75 -46 1 -84 5 -84 9 0 4 -6 14 -12 21 -7 7
-39 47 -70 88 -31 41 -88 109 -127 150 -50 53 -70 83 -71 102 0 42 31 44 155
6z m-239 -150 c68 -73 209 -242 233 -281 l23 -37 -23 -48 -23 -47 -150 3 c-83
2 -153 5 -155 7 -7 8 -11 59 -16 234 -3 95 -7 178 -8 184 -2 9 31 22 69 26 5
0 28 -18 50 -41z m1083 -395 c16 -16 36 -33 44 -39 23 -20 90 -37 134 -35 l42
1 59 -87 c57 -86 212 -358 212 -373 0 -4 -28 3 -62 15 -151 54 -391 64 -601
25 -56 -11 -61 -10 -98 14 -21 14 -45 26 -53 26 -8 0 -18 5 -21 10 -3 6 -17
10 -30 10 -32 0 -48 18 -69 81 l-18 54 35 52 c33 49 48 83 61 144 4 20 17 31
53 45 27 10 50 19 53 19 3 1 37 11 75 22 39 12 88 26 110 31 22 6 41 10 42 11
1 1 16 -11 32 -26z m410 11 c20 -3 41 -9 46 -12 6 -4 16 -7 24 -9 34 -5 157
-74 170 -95 32 -51 90 -160 97 -181 3 -12 16 -49 29 -82 41 -110 67 -218 82
-343 9 -80 9 -329 0 -339 -10 -10 -14 -2 -21 37 -11 65 -59 204 -107 308 -11
24 -27 62 -36 85 -28 69 -158 319 -216 414 -108 176 -122 198 -129 201 -5 2
-8 11 -8 19 0 10 6 13 17 9 9 -4 32 -9 52 -12z m-1323 -178 c38 -1 44 -5 79
-58 44 -64 111 -105 184 -113 24 -2 45 -5 47 -7 2 -2 14 -33 28 -68 l24 -64
-25 -37 c-14 -21 -33 -64 -43 -96 -18 -57 -19 -58 -111 -115 -52 -32 -101 -61
-109 -65 -16 -8 -182 -123 -190 -132 -3 -4 -21 -18 -40 -33 -19 -15 -47 -37
-62 -50 -14 -13 -35 -30 -45 -38 -86 -71 -132 -111 -169 -149 -24 -25 -46 -43
-48 -40 -2 2 11 49 31 104 19 55 36 107 38 115 2 8 17 70 35 138 17 68 33 136
35 152 2 16 6 39 10 50 4 12 8 39 10 60 2 21 6 51 9 66 3 16 8 49 11 74 13
127 16 161 20 225 2 39 4 75 4 82 1 9 30 11 119 6 64 -3 135 -6 158 -7z m1124
-450 c210 -25 357 -116 431 -267 30 -61 50 -118 51 -144 0 -2 6 -27 13 -54 13
-50 13 -259 1 -346 -16 -110 -44 -197 -89 -284 -27 -52 -54 -100 -60 -107 -7
-7 -25 -35 -42 -63 -33 -56 -53 -68 -87 -50 -13 7 -65 13 -123 13 -100 1 -100
1 -167 44 -37 23 -93 54 -125 68 -63 29 -214 79 -265 88 -97 18 -162 36 -176
50 -14 13 -14 22 -3 68 57 236 66 279 77 363 13 106 14 133 14 230 1 126 10
156 61 190 40 26 89 107 89 147 0 9 5 20 11 24 22 13 134 30 224 33 50 1 92 4
93 6 2 2 9 2 15 0 7 -2 32 -6 57 -9z m-730 -213 l40 -28 -2 -137 c0 -76 -4
-138 -7 -138 -3 0 -6 -17 -6 -37 -1 -65 -25 -193 -69 -366 -7 -26 -16 -37 -29
-37 -33 0 -86 -23 -121 -52 -37 -30 -45 -32 -120 -34 -81 -1 -269 -13 -316
-19 -14 -2 -50 -6 -80 -10 -98 -11 -124 -14 -165 -20 -34 -5 -171 -28 -242
-40 -13 -2 -23 -1 -23 1 0 21 87 120 252 286 257 259 374 360 571 496 65 45
122 82 128 82 5 0 9 4 9 9 0 5 10 13 23 17 12 4 38 17 57 30 44 30 51 30 100
-3z m1415 -590 c26 -70 156 -317 175 -333 3 -3 17 -23 30 -45 13 -22 26 -42
29 -45 4 -3 25 -30 48 -60 23 -30 79 -92 123 -138 102 -104 123 -137 107 -166
-33 -58 -193 -131 -330 -149 -45 -6 -53 -12 -40 -29 29 -35 85 -164 92 -209 9
-56 2 -70 -56 -109 l-23 -15 54 -59 54 -59 -45 -65 c-25 -35 -55 -74 -66 -85
l-20 -20 -18 24 c-10 13 -35 49 -56 79 -21 30 -40 57 -43 60 -9 9 -143 199
-231 330 -46 69 -87 127 -90 130 -3 3 -14 20 -24 39 -16 32 -16 36 1 73 20 44
25 126 12 175 -8 30 -3 42 62 140 40 60 94 153 120 208 43 87 54 120 76 220 2
11 7 43 9 70 4 41 9 71 14 93 3 12 21 -15 36 -55z m-1657 -413 c12 -14 25 -33
28 -42 3 -10 9 -18 14 -18 18 0 18 -31 -1 -82 -20 -51 -143 -302 -189 -383
-56 -100 -85 -145 -95 -146 -5 0 -17 -2 -25 -4 -8 -1 -35 -6 -60 -10 l-45 -7
-227 228 c-125 125 -225 231 -221 237 3 6 7 47 9 91 l3 81 33 7 c18 4 51 10
73 12 22 3 51 8 65 11 33 7 60 11 235 31 17 2 77 6 135 10 58 3 106 7 107 8 1
1 33 2 70 2 60 0 71 -3 91 -26z m447 -22 c22 -6 51 -12 65 -15 45 -9 73 -18
102 -34 10 -5 26 -9 36 -9 10 0 22 -4 28 -8 5 -5 25 -15 44 -22 40 -16 132
-70 141 -83 3 -5 0 -27 -8 -50 -8 -23 -15 -70 -15 -103 -1 -52 5 -71 31 -117
l32 -56 -124 -123 c-128 -128 -156 -153 -247 -228 -30 -25 -61 -52 -70 -60
-19 -18 -49 -41 -154 -119 -63 -47 -84 -58 -105 -54 -14 3 -54 6 -87 7 -58 1
-64 3 -118 50 -52 45 -56 51 -50 80 15 67 8 117 -27 191 l-21 44 26 38 c14 21
26 43 26 50 0 7 3 13 8 13 4 0 12 10 18 23 5 12 36 72 67 132 50 98 119 242
122 255 8 33 51 111 64 115 9 2 41 27 71 55 58 53 52 51 145 28z m761 -573 c8
-7 14 -16 14 -18 0 -7 48 -77 205 -300 77 -109 145 -206 150 -215 6 -8 15 -23
22 -31 196 -255 206 -273 219 -401 9 -99 -102 -213 -250 -255 -131 -37 -404
-9 -601 62 -124 45 -292 132 -375 195 -52 39 -145 113 -156 123 -6 6 -34 28
-62 50 -29 21 -52 42 -53 45 0 3 -2 29 -3 59 l-1 54 55 41 c30 22 69 52 86 66
16 14 45 36 63 50 19 14 42 32 51 40 10 8 41 35 71 60 76 65 166 150 288 271
l106 106 54 1 c29 0 55 2 57 4 9 10 48 5 60 -7z m-1293 -572 c40 -42 47 -54
45 -84 -3 -36 -23 -55 -88 -86 -19 -9 -37 -20 -40 -24 -18 -24 -537 -261 -552
-252 -7 3 15 33 53 74 9 9 21 24 25 32 5 8 23 32 41 53 30 36 94 116 111 139
4 6 39 53 78 105 l71 95 56 -1 c31 -1 71 2 89 6 41 9 52 3 111 -57z m232 -285
c28 0 55 1 61 3 6 2 58 -35 115 -82 57 -47 129 -103 159 -125 30 -21 57 -42
58 -46 2 -5 8 -8 13 -8 5 0 32 -15 61 -34 61 -38 154 -87 216 -112 l43 -18
-28 -15 c-15 -8 -30 -14 -33 -14 -3 0 -22 -11 -42 -23 -21 -13 -40 -24 -43
-24 -7 0 -142 -90 -173 -115 -47 -38 -228 -220 -273 -275 l-46 -54 -87 52
c-47 29 -89 52 -92 52 -3 0 -18 8 -32 18 -15 11 -52 32 -82 49 -30 16 -140 79
-245 140 -104 60 -212 122 -240 138 -48 26 -187 106 -193 110 -1 1 1 16 4 33
6 28 13 33 59 47 86 25 454 198 594 279 l95 54 40 -15 c23 -8 64 -15 91 -15z"/>
<path d="M1575 5236 c-63 -18 -99 -41 -149 -97 -146 -162 -92 -408 110 -500
114 -52 263 -27 348 57 34 35 76 99 81 125 2 11 6 23 10 28 3 6 6 41 6 79 1
71 -26 155 -61 193 -8 9 -25 28 -38 43 -13 14 -48 37 -77 52 -62 30 -164 39
-230 20z"/>
<path d="M585 4343 c-47 -12 -103 -62 -133 -118 -23 -44 -24 -137 -2 -183 62
-128 233 -166 341 -75 122 103 85 306 -67 369 -32 14 -99 17 -139 7z"/>
<path d="M2327 3978 c-127 -27 -221 -130 -244 -267 -10 -62 -9 -75 8 -133 57
-194 265 -287 444 -199 122 60 184 163 180 296 -7 201 -192 345 -388 303z"/>
<path d="M1265 3413 c-75 -25 -154 -108 -169 -178 -14 -65 -14 -75 -1 -124 38
-147 173 -225 325 -189 35 9 80 40 118 83 87 99 85 233 -6 336 -62 71 -178
102 -267 72z"/>
<path d="M214 2910 c-42 -9 -98 -45 -117 -74 -88 -133 10 -306 165 -292 113
11 196 131 163 236 -26 83 -130 147 -211 130z"/>
<path d="M1285 2329 c-64 -12 -107 -34 -155 -81 -53 -51 -77 -92 -95 -160 -32
-121 12 -251 110 -325 72 -54 104 -65 190 -66 100 -1 172 28 237 95 129 135
123 325 -14 454 -78 72 -173 101 -273 83z"/>
<path d="M2635 2191 c-57 -21 -109 -65 -142 -121 -35 -58 -40 -165 -12 -221
63 -125 184 -182 310 -146 70 21 121 64 153 130 34 70 39 137 14 203 -50 131
-195 200 -323 155z"/>
</g>
</svg>
