<svg width="36" height="37" viewBox="0 0 36 37" fill="none" xmlns="http://www.w3.org/2000/svg">
<path d="M10.988 19.5363C10.856 19.9322 10.856 19.9322 10.5921 20.5924L10.5482 20.6805C10.24 21.5166 9.7121 22.5285 9.3601 23.1886C8.83219 23.4526 8.30402 23.7165 7.55602 24.1566C5.97202 25.0808 4.87202 25.7406 4.4761 26.7968C4.25604 27.3689 3.72814 28.7767 4.87203 29.7009C5.26796 30.0529 5.79619 30.2288 6.28019 30.2288C6.80809 30.2288 7.29211 30.0529 7.68834 29.7009C8.21625 29.2169 8.4363 28.7767 8.87642 27.941C9.0084 27.721 9.14037 27.457 9.31655 27.1049C10.0206 25.741 10.4605 24.8169 10.5485 24.6849C10.5485 24.641 10.5924 24.5968 10.6366 24.5529C10.9448 24.4209 11.2965 24.2889 11.6927 24.1128C13.1447 23.4968 13.7607 23.3209 15.0808 22.8808L15.6968 22.6607C16.1808 22.4848 16.5329 22.3967 16.8848 22.2648C17.325 22.0889 17.6767 22.0008 18.0288 21.8688C18.3369 22.1328 18.6448 22.4409 19.0407 22.7488C19.8768 23.4528 20.4489 23.8048 21.0649 23.9808C21.5928 24.1127 22.3407 24.0689 22.8247 23.9369C24.3649 23.5409 24.4087 22.3967 24.4526 21.9127C24.4965 21.2528 24.1006 20.1086 22.3846 19.8008C21.5928 19.6688 21.0645 19.6688 20.5805 19.6688C20.0965 19.6688 19.7006 19.7127 19.0846 19.8008C18.9087 19.8447 18.6887 19.8889 18.5567 19.8889C18.1166 19.4488 17.8087 19.009 17.3247 18.3487C16.4006 17.0287 15.8288 16.1048 14.9046 14.4767C14.7727 14.2566 14.6407 13.9926 14.5087 13.7726C14.5968 13.3766 14.6846 12.9365 14.7727 12.4087L14.9046 11.7927C15.2567 10.1206 15.3448 9.54875 15.0805 8.18452C14.7724 6.6886 13.7604 6.33652 13.2325 6.38044C12.9685 6.38044 11.9124 6.55631 11.4727 8.09644C11.1645 9.15252 11.2087 9.94444 11.4727 11.0444C11.6485 11.8363 12.0448 12.8043 12.7047 13.9924C12.4846 14.9166 12.2206 15.7523 11.7367 17.1604C11.2959 18.6124 11.0759 19.1843 10.9881 19.5363L10.988 19.5363ZM7.77576 26.2244C7.59989 26.5325 7.46761 26.8404 7.33564 27.0605C6.89551 27.8965 6.80773 28.0724 6.54379 28.3363C6.36793 28.4683 6.14786 28.3802 6.01589 28.2924C5.972 28.2485 5.84002 28.1604 6.14786 27.3683C6.32373 26.9281 7.15978 26.4003 7.90771 25.9163C7.90801 26.0485 7.81993 26.1363 7.77573 26.2244L7.77576 26.2244ZM20.6678 21.3842C21.1079 21.3842 21.5477 21.3842 22.1637 21.5162C22.6038 21.6043 22.7358 21.7802 22.7358 21.8244V22.1325C22.7358 22.1325 22.6919 22.1764 22.4718 22.2206C22.1637 22.3087 21.7239 22.3087 21.5919 22.2645C21.3718 22.1764 21.0198 22.0444 20.2718 21.4284C20.4038 21.3842 20.5358 21.3842 20.6678 21.3842L20.6678 21.3842ZM13.2317 8.53623C13.2756 8.40426 13.3198 8.27228 13.3637 8.22808C13.4075 8.27197 13.4075 8.36006 13.4517 8.49204C13.6276 9.46004 13.6276 9.76788 13.3637 11.044C13.3198 10.9121 13.2756 10.7801 13.2756 10.692C13.0558 9.72431 13.0116 9.24023 13.2317 8.53615V8.53623ZM12.2198 21.2962L12.2636 21.2081C12.5276 20.5041 12.5276 20.5041 12.7038 20.0642C12.7919 19.7561 13.0119 19.1401 13.4956 17.7322C13.7157 17.1601 13.8477 16.6322 13.9796 16.1921C14.6395 17.336 15.1677 18.2162 15.9596 19.3162C16.2677 19.7122 16.4875 20.0642 16.7514 20.3723C16.6194 20.4162 16.4874 20.4604 16.3555 20.5043C16.0473 20.6363 15.6956 20.7243 15.2115 20.9002L14.5956 21.12C13.4956 21.472 12.8796 21.6921 11.8676 22.088C11.9996 21.824 12.0877 21.5601 12.2197 21.2961L12.2198 21.2962ZM27.3998 21.2081V25.4323L21.7239 25.432C20.0518 25.432 18.644 26.8402 18.644 28.5119L18.6437 34.3201H5.35569C3.41961 34.3201 1.87985 32.7361 1.87985 30.7561L1.87954 5.32416C1.87954 3.38808 3.46354 1.76024 5.35538 1.76024H23.9234C25.5955 1.76024 27.0033 2.99223 27.3554 4.62008C27.6635 4.57619 28.0153 4.57619 28.3234 4.57619C28.5873 4.57619 28.8513 4.57619 29.1152 4.62008C28.7635 2.02416 26.5635 0 23.8795 0H5.35546C2.45138 0 0.119385 2.37584 0.119385 5.32416V30.8001C0.119385 33.7481 2.45138 36.1243 5.35546 36.1243H19.5235H19.6993C19.7432 36.1243 19.7432 36.1243 19.7874 36.0804C19.8313 36.0804 19.8313 36.0804 19.8755 36.0365C19.9194 36.0365 19.9194 35.9926 19.9636 35.9926C19.9636 35.9926 20.0075 35.9926 20.0075 35.9487C20.0514 35.9049 20.0956 35.8607 20.1395 35.8168L28.8514 26.9728C28.8514 26.9728 28.8514 26.9289 28.8953 26.9289L28.9834 26.8408C28.9834 26.7969 29.0273 26.7969 29.0273 26.7527C29.0273 26.7088 29.0712 26.7088 29.0712 26.6646C29.0712 26.6207 29.0712 26.6207 29.1151 26.5765V26.4885V26.3126L29.1154 21.2082C28.8514 21.2521 28.5433 21.2521 28.2793 21.2521C27.9715 21.2521 27.6633 21.2521 27.3994 21.2082L27.3998 21.2081ZM20.4038 33.0441V28.5561C20.4038 27.8081 20.9759 27.236 21.7239 27.236H26.1678L20.4038 33.0441ZM28.2798 5.63215C24.2758 5.63215 21.02 8.88823 21.02 12.892C21.02 16.8961 24.2761 20.1518 28.2798 20.1518C32.2839 20.1521 35.54 16.8963 35.54 12.8922C35.54 8.88815 32.2839 5.63207 28.2798 5.63207V5.63215ZM28.2798 18.8321C25.0238 18.8321 22.3397 16.1481 22.3397 12.892C22.3397 9.63591 25.0237 6.95183 28.2798 6.95183C31.5359 6.95214 34.22 9.63615 34.22 12.8922C34.22 16.1483 31.5798 18.8321 28.2798 18.8321V18.8321ZM30.9638 13.5522C31.0958 13.6842 31.1397 13.8604 31.1397 14.0362C31.1397 14.2121 31.0958 14.3883 30.9638 14.5203L28.7638 16.7203C28.6319 16.8522 28.4999 16.8961 28.3237 16.8961H28.2798H28.1917C28.0598 16.8961 27.9278 16.808 27.8397 16.7203L25.5958 14.4763C25.3318 14.2124 25.3318 13.8165 25.5958 13.5522C25.8597 13.2882 26.2556 13.2882 26.5199 13.5522L27.576 14.6083L27.5757 9.59226C27.5757 9.24022 27.8839 8.93238 28.2356 8.93238C28.5879 8.93208 28.94 9.24023 28.94 9.59226V14.6083L29.996 13.5522C30.3039 13.2882 30.6998 13.2882 30.9637 13.5522L30.9638 13.5522Z" fill="white"/>
</svg>
