<svg width="23" height="17" viewBox="0 0 23 17" fill="none" xmlns="http://www.w3.org/2000/svg">
<path d="M18.2292 12.6524C16.2292 13.7497 14.2937 14.847 11.5 14.847C8.70625 14.847 6.77083 13.7497 4.77083 12.6524M8.16146 14.2788C7.68925 15.025 7.18343 15.7456 6.64583 16.4379C2.80208 16.3194 1.34375 13.6171 1.34375 13.6171C1.39838 9.78822 2.25499 6.02277 3.84896 2.60477C5.25009 1.41747 6.95736 0.731384 8.73437 0.641506L9.25521 1.94471C9.99909 1.83284 10.749 1.77442 11.5 1.76982C12.2544 1.77251 13.0077 1.82904 13.7552 1.93906L14.276 0.635864C16.0548 0.730609 17.7622 1.42268 19.1615 2.61605C20.7503 6.03157 21.6033 9.79292 21.6562 13.6171C21.6562 13.6171 20.1979 16.3194 16.3542 16.4379C15.8247 15.7489 15.3275 15.0315 14.8646 14.2884L8.16146 14.2788Z" stroke="#FFE000" stroke-linecap="round" stroke-linejoin="round"/>
<path d="M8.29533 11.6877C9.25895 11.6877 10.0401 10.8415 10.0401 9.79776C10.0401 8.75398 9.25895 7.90784 8.29533 7.90784C7.33171 7.90784 6.55054 8.75398 6.55054 9.79776C6.55054 10.8415 7.33171 11.6877 8.29533 11.6877Z" stroke="#FFE000" stroke-linecap="round" stroke-linejoin="round"/>
<path d="M14.7048 11.6877C15.6684 11.6877 16.4495 10.8415 16.4495 9.79776C16.4495 8.75398 15.6684 7.90784 14.7048 7.90784C13.7411 7.90784 12.96 8.75398 12.96 9.79776C12.96 10.8415 13.7411 11.6877 14.7048 11.6877Z" stroke="#FFE000" stroke-linecap="round" stroke-linejoin="round"/>
</svg>
