<svg width="17" height="17" viewBox="0 0 17 17" fill="none" xmlns="http://www.w3.org/2000/svg">
<path d="M11.4961 1.08594H5.50391C3.2322 1.08594 1.39062 2.92752 1.39062 5.19922V11.8047C1.39062 14.0764 3.2322 15.918 5.50391 15.918H11.4961C13.7678 15.918 15.6094 14.0764 15.6094 11.8047V5.19922C15.6094 2.92752 13.7678 1.08594 11.4961 1.08594Z" stroke="#FFE000" stroke-linecap="round"/>
<path d="M8.5 12.125C10.502 12.125 12.125 10.502 12.125 8.5C12.125 6.49797 10.502 4.875 8.5 4.875C6.49797 4.875 4.875 6.49797 4.875 8.5C4.875 10.502 6.49797 12.125 8.5 12.125Z" stroke="#FFE000" stroke-linecap="round"/>
<path d="M12.8398 4.22656C13.1246 4.22656 13.3555 3.99571 13.3555 3.71094C13.3555 3.42617 13.1246 3.19531 12.8398 3.19531C12.5551 3.19531 12.3242 3.42617 12.3242 3.71094C12.3242 3.99571 12.5551 4.22656 12.8398 4.22656Z" stroke="#FFE000"/>
</svg>
