<svg width="20" height="18" viewBox="0 0 20 18" fill="none" xmlns="http://www.w3.org/2000/svg">
<path d="M19.1975 1.37802C19.1975 1.33896 19.1623 1.31552 19.1311 1.34287C18.5178 1.87412 17.0373 2.3038 16.8498 2.32334C16.8443 2.32581 16.8383 2.3271 16.8322 2.3271C16.8262 2.3271 16.8202 2.32581 16.8147 2.32334C15.7287 0.58896 13.2248 1.05771 13.2248 1.05771C9.54513 1.83896 9.95138 5.55771 10.0217 5.94834C10.0217 5.96787 10.0217 5.98349 9.98653 5.98349C5.89278 6.18662 2.31857 2.38193 1.91232 1.93271C1.90828 1.9278 1.90322 1.92385 1.89748 1.92114C1.89173 1.91842 1.88546 1.91702 1.87911 1.91702C1.87276 1.91702 1.86649 1.91842 1.86075 1.92114C1.85501 1.92385 1.84994 1.9278 1.84591 1.93271C1.38651 2.78437 1.24083 3.77034 1.43431 4.71847C1.62779 5.66659 2.14814 6.51664 2.9045 7.12021C2.91099 7.124 2.91637 7.12941 2.9201 7.13592C2.92384 7.14244 2.92581 7.14981 2.92581 7.15732C2.92581 7.16483 2.92384 7.17221 2.9201 7.17872C2.91637 7.18523 2.91099 7.19065 2.9045 7.19443C2.37101 7.17775 1.84357 7.07622 1.342 6.89365C1.31857 6.89365 1.29122 6.89365 1.29122 6.93271C1.34591 9.35459 3.72091 10.4483 4.27169 10.6788C4.27951 10.6814 4.28631 10.6863 4.29113 10.693C4.29596 10.6997 4.29856 10.7077 4.29856 10.7159C4.29856 10.7241 4.29596 10.7322 4.29113 10.7388C4.28631 10.7455 4.27951 10.7505 4.27169 10.753C3.7781 10.8606 3.27155 10.8961 2.76778 10.8585C2.76101 10.8582 2.75426 10.8596 2.7481 10.8624C2.74195 10.8653 2.73655 10.8695 2.73236 10.8749C2.72817 10.8802 2.7253 10.8865 2.72399 10.8931C2.72268 10.8998 2.72296 10.9067 2.72482 10.9132C3.22091 12.7804 5.6545 13.5616 6.092 13.6905C6.09933 13.6921 6.10612 13.6955 6.11171 13.7005C6.1173 13.7055 6.12148 13.7119 6.12385 13.719C6.12622 13.7261 6.12669 13.7337 6.12522 13.741C6.12374 13.7484 6.12037 13.7552 6.11544 13.7608C4.61153 15.1046 1.64669 15.4601 1.03732 15.5226C1.02922 15.5236 1.02159 15.527 1.01534 15.5322C1.00908 15.5375 1.00445 15.5444 1.00199 15.5522C0.999535 15.56 0.999346 15.5683 1.00145 15.5762C1.00356 15.5841 1.00787 15.5912 1.01388 15.5968C3.28732 17.1593 9.24044 18.4562 13.7873 14.5694C15.1315 13.3979 16.1937 11.9378 16.8944 10.2982C17.5952 8.65861 17.9164 6.88186 17.8342 5.10068C17.8342 5.09417 17.8361 5.08781 17.8395 5.08229C17.843 5.07677 17.8479 5.07232 17.8537 5.06943C18.6703 4.58983 19.3507 3.90944 19.8303 3.09287C19.8303 3.0538 19.8303 3.03037 19.7717 3.04209C19.3762 3.18102 18.9493 3.20406 18.5412 3.10849C18.5412 3.10849 19.2092 1.95224 19.1975 1.37802Z" stroke="#FFE000" stroke-linecap="round"/>
</svg>
